STARTFONT 2.1
COMMENT
COMMENT  Copyright (c) 1999, Thomas A. Fine
COMMENT
COMMENT  License to copy and distribute for both commercial and
COMMENT  non-commercial use is herby granted, provided this notice
COMMENT  is preserved.
COMMENT
COMMENT  Email to my last name at head.cfa.harvard.edu
COMMENT  http://hea-www.harvard.edu/~fine/
COMMENT
COMMENT  Produced with bdfedit, a tcl/tk font editing program
COMMENT  written by Thomas A. Fine
COMMENT
FONT ShadowBold
SIZE 13 72 72
FONTBOUNDINGBOX 12 18 0 -4
STARTPROPERTIES 10
FOUNDRY "Fine"
FAMILY_NAME ""
WEIGHT_NAME "Medium"
SLANT "R"
SETWIDTH_NAME "Normal"
SPACING "c"
CHARSET_REGISTRY "ISO-8859"
CHARSET_ENCODING "1"
FONT_ASCENT  14
FONT_DESCENT 4
ENDPROPERTIES
CHARS 95

STARTCHAR C040
ENCODING 32
SWIDTH 923 0
DWIDTH 12 0
BBX 12 18 0 -4
BITMAP
0000
0000
0000
0000
0000
0000
0000
0000
0000
0000
0000
0000
0000
0000
0000
0000
0000
0000
ENDCHAR
STARTCHAR C041
ENCODING 33
SWIDTH 923 0
DWIDTH 12 0
BBX 12 18 0 -4
BITMAP
0000
0800
1800
1800
1800
1800
1800
1800
1800
1e00
1c00
0800
1800
1e00
1c00
0000
0000
0000
ENDCHAR
STARTCHAR C042
ENCODING 34
SWIDTH 923 0
DWIDTH 12 0
BBX 12 18 0 -4
BITMAP
0000
2100
6300
6300
7bc0
7380
0000
0000
0000
0000
0000
0000
0000
0000
0000
0000
0000
0000
ENDCHAR
STARTCHAR C043
ENCODING 35
SWIDTH 923 0
DWIDTH 12 0
BBX 12 18 0 -4
BITMAP
3180
3180
3180
4000
c000
f390
f390
3180
3180
4000
c000
f390
f390
3180
3de0
39c0
0000
0000
ENDCHAR
STARTCHAR C044
ENCODING 36
SWIDTH 923 0
DWIDTH 12 0
BBX 12 18 0 -4
BITMAP
0400
0000
2000
4400
cca0
c4c0
c080
f000
7c00
1c80
0c80
4000
e020
7cc0
3c80
0f00
0e00
0000
ENDCHAR
STARTCHAR C045
ENCODING 37
SWIDTH 923 0
DWIDTH 12 0
BBX 12 18 0 -4
BITMAP
0000
2080
4180
d900
d900
c300
fa00
7200
0600
0440
0480
0cb0
09b0
0980
1ff0
1ce0
0000
0000
ENDCHAR
STARTCHAR C046
ENCODING 38
SWIDTH 923 0
DWIDTH 12 0
BBX 12 18 0 -4
BITMAP
1000
2000
6600
6600
6000
7080
2000
4600
cf10
c320
c200
c000
e040
7ff0
3f60
0000
0000
0000
ENDCHAR
STARTCHAR C047
ENCODING 39
SWIDTH 923 0
DWIDTH 12 0
BBX 12 18 0 -4
BITMAP
0000
0800
1800
1c00
1c00
0900
0e00
1c00
0000
0000
0000
0000
0000
0000
0000
0000
0000
0000
ENDCHAR
STARTCHAR C050
ENCODING 40
SWIDTH 923 0
DWIDTH 12 0
BBX 12 18 0 -4
BITMAP
0000
0000
0800
1100
3200
2000
6000
6000
6000
6000
7000
3000
3800
1f00
0e00
0000
0000
0000
ENDCHAR
STARTCHAR C051
ENCODING 41
SWIDTH 923 0
DWIDTH 12 0
BBX 12 18 0 -4
BITMAP
0000
0000
0000
0800
1c00
0e00
0600
0600
0600
0600
0400
1000
3100
3e00
3c00
0000
0000
0000
ENDCHAR
STARTCHAR C052
ENCODING 42
SWIDTH 923 0
DWIDTH 12 0
BBX 12 18 0 -4
BITMAP
0000
0000
0400
0800
1800
0000
0000
c030
e060
4040
0400
0e00
1700
2380
0100
0000
0000
0000
ENDCHAR
STARTCHAR C053
ENCODING 43
SWIDTH 923 0
DWIDTH 12 0
BBX 12 18 0 -4
BITMAP
0000
0000
0000
0000
0800
1800
1800
4000
c000
f9c0
f980
1800
1e00
1c00
0000
0000
0000
0000
ENDCHAR
STARTCHAR C054
ENCODING 44
SWIDTH 923 0
DWIDTH 12 0
BBX 12 18 0 -4
BITMAP
0000
0000
0000
0000
0000
0000
0000
0000
0000
0000
0000
0800
1800
1c00
1c00
0900
0e00
1c00
ENDCHAR
STARTCHAR C055
ENCODING 45
SWIDTH 923 0
DWIDTH 12 0
BBX 12 18 0 -4
BITMAP
0000
0000
0000
0000
0000
0000
0000
4000
c000
ffc0
ff80
0000
0000
0000
0000
0000
0000
0000
ENDCHAR
STARTCHAR C056
ENCODING 46
SWIDTH 923 0
DWIDTH 12 0
BBX 12 18 0 -4
BITMAP
0000
0000
0000
0000
0000
0000
0000
0000
0000
0000
0000
0800
1800
1e00
1c00
0000
0000
0000
ENDCHAR
STARTCHAR C057
ENCODING 47
SWIDTH 923 0
DWIDTH 12 0
BBX 12 18 0 -4
BITMAP
0000
0100
0300
0200
0600
0600
0400
0c00
0c00
0800
1800
1800
1000
3000
3c00
3800
0000
0000
ENDCHAR
STARTCHAR C060
ENCODING 48
SWIDTH 923 0
DWIDTH 12 0
BBX 12 18 0 -4
BITMAP
0000
0000
2000
4600
cf00
c300
c300
c300
c300
c300
c300
c000
e040
7f80
3f00
0000
0000
0000
ENDCHAR
STARTCHAR C061
ENCODING 49
SWIDTH 923 0
DWIDTH 12 0
BBX 12 18 0 -4
BITMAP
0000
1000
2000
6000
7800
7800
1800
1800
1800
1800
1800
2000
6000
7f80
7f00
0000
0000
0000
ENDCHAR
STARTCHAR C062
ENCODING 50
SWIDTH 923 0
DWIDTH 12 0
BBX 12 18 0 -4
BITMAP
0000
0000
4000
ee00
7f00
3300
0200
0040
0080
0380
0600
4000
c000
ffe0
ffc0
0000
0000
0000
ENDCHAR
STARTCHAR C063
ENCODING 51
SWIDTH 923 0
DWIDTH 12 0
BBX 12 18 0 -4
BITMAP
0000
0000
4000
ee00
7f00
6300
0800
1800
1e00
1f00
2300
4000
f040
ff80
1f00
0000
0000
0000
ENDCHAR
STARTCHAR C064
ENCODING 52
SWIDTH 923 0
DWIDTH 12 0
BBX 12 18 0 -4
BITMAP
0000
0200
0600
4600
c600
c600
c600
c000
c000
fe70
fe60
0600
0600
0780
0700
0000
0000
0000
ENDCHAR
STARTCHAR C065
ENCODING 53
SWIDTH 923 0
DWIDTH 12 0
BBX 12 18 0 -4
BITMAP
0000
4000
c000
cfe0
cfc0
c000
c000
de00
ff00
c180
2100
4000
e020
ffc0
3f80
0000
0000
0000
ENDCHAR
STARTCHAR C066
ENCODING 54
SWIDTH 923 0
DWIDTH 12 0
BBX 12 18 0 -4
BITMAP
0000
0200
0400
0800
1000
2000
6000
4600
cf00
c300
c200
e000
7040
3f80
1f00
0000
0000
0000
ENDCHAR
STARTCHAR C067
ENCODING 55
SWIDTH 923 0
DWIDTH 12 0
BBX 12 18 0 -4
BITMAP
0000
4000
c000
ff00
fe10
0020
0040
0880
1800
1800
1800
1800
1800
1f00
1e00
0000
0000
0000
ENDCHAR
STARTCHAR C070
ENCODING 56
SWIDTH 923 0
DWIDTH 12 0
BBX 12 18 0 -4
BITMAP
0000
0000
2000
4700
cf80
c180
e000
6000
4700
cf80
c180
c000
e020
7fc0
3f80
0000
0000
0000
ENDCHAR
STARTCHAR C071
ENCODING 57
SWIDTH 923 0
DWIDTH 12 0
BBX 12 18 0 -4
BITMAP
0000
0000
0000
2700
4f80
c180
c100
e000
7080
3f80
1f00
0000
2020
7fc0
3f80
0000
0000
0000
ENDCHAR
STARTCHAR C072
ENCODING 58
SWIDTH 923 0
DWIDTH 12 0
BBX 12 18 0 -4
BITMAP
0000
0000
0000
0000
0800
1800
1e00
1c00
0000
0000
0000
0800
1800
1e00
1c00
0000
0000
0000
ENDCHAR
STARTCHAR C073
ENCODING 59
SWIDTH 923 0
DWIDTH 12 0
BBX 12 18 0 -4
BITMAP
0000
0000
0000
0000
0800
1800
1e00
1c00
0000
0000
0000
0800
1800
1c00
1c00
0900
0e00
1c00
ENDCHAR
STARTCHAR C074
ENCODING 60
SWIDTH 923 0
DWIDTH 12 0
BBX 12 18 0 -4
BITMAP
0000
0000
0000
0060
0180
0600
0000
6000
f800
3e00
0f80
03e0
00c0
0000
0000
0000
0000
0000
ENDCHAR
STARTCHAR C075
ENCODING 61
SWIDTH 923 0
DWIDTH 12 0
BBX 12 18 0 -4
BITMAP
0000
0000
0000
0000
4000
c000
ffc0
ff80
0000
4000
c000
ffc0
ff80
0000
0000
0000
0000
0000
ENDCHAR
STARTCHAR C076
ENCODING 62
SWIDTH 923 0
DWIDTH 12 0
BBX 12 18 0 -4
BITMAP
0000
0000
0000
3000
7c00
1f00
0400
0030
00c0
0300
0c00
3000
0000
0000
0000
0000
0000
0000
ENDCHAR
STARTCHAR C077
ENCODING 63
SWIDTH 923 0
DWIDTH 12 0
BBX 12 18 0 -4
BITMAP
0000
0000
4000
ee00
7700
2300
0000
0840
1980
1f00
1c00
0800
1800
1e00
1c00
0000
0000
0000
ENDCHAR
STARTCHAR C100
ENCODING 64
SWIDTH 923 0
DWIDTH 12 0
BBX 12 18 0 -4
BITMAP
0000
1000
2780
6fc0
48e0
c260
c460
cb00
c900
c850
efe0
6740
7000
3fc0
1f80
0000
0000
0000
ENDCHAR
STARTCHAR C101
ENCODING 65
SWIDTH 923 0
DWIDTH 12 0
BBX 12 18 0 -4
BITMAP
0000
0200
0600
0400
0c00
0800
1900
1380
3000
2000
6780
4fc0
c0c0
e070
e060
0000
0000
0000
ENDCHAR
STARTCHAR C102
ENCODING 66
SWIDTH 923 0
DWIDTH 12 0
BBX 12 18 0 -4
BITMAP
0000
4000
c000
cf00
cf80
c180
c000
c000
cf00
cf80
c180
c000
c020
ffc0
ff80
0000
0000
0000
ENDCHAR
STARTCHAR C103
ENCODING 67
SWIDTH 923 0
DWIDTH 12 0
BBX 12 18 0 -4
BITMAP
0000
0000
1000
2380
67f0
4ce0
c000
c000
c000
c000
e000
6000
7020
3fc0
1f80
0000
0000
0000
ENDCHAR
STARTCHAR C104
ENCODING 68
SWIDTH 923 0
DWIDTH 12 0
BBX 12 18 0 -4
BITMAP
0000
4000
c000
cf00
cf80
c1c0
c0c0
c0c0
c0c0
c0c0
c080
c000
c040
ff80
ff00
0000
0000
0000
ENDCHAR
STARTCHAR C105
ENCODING 69
SWIDTH 923 0
DWIDTH 12 0
BBX 12 18 0 -4
BITMAP
0000
4000
c000
cfe0
cfc0
c000
c000
cf80
cf00
c000
c000
c000
c000
ffe0
ffc0
0000
0000
0000
ENDCHAR
STARTCHAR C106
ENCODING 70
SWIDTH 923 0
DWIDTH 12 0
BBX 12 18 0 -4
BITMAP
0000
4000
c000
cfe0
cfc0
c000
c000
cf80
cf00
c000
c000
c000
c000
f000
e000
0000
0000
0000
ENDCHAR
STARTCHAR C107
ENCODING 71
SWIDTH 923 0
DWIDTH 12 0
BBX 12 18 0 -4
BITMAP
0000
0000
1000
6380
67f0
c0e0
c000
c000
c200
c600
e780
6000
7040
3ff0
1f60
0000
0000
0000
ENDCHAR
STARTCHAR C110
ENCODING 72
SWIDTH 923 0
DWIDTH 12 0
BBX 12 18 0 -4
BITMAP
0000
4040
c0c0
c0c0
c0c0
c0c0
c000
c000
cfc0
cfc0
c0c0
c0c0
c0c0
f0f0
e0e0
0000
0000
0000
ENDCHAR
STARTCHAR C111
ENCODING 73
SWIDTH 923 0
DWIDTH 12 0
BBX 12 18 0 -4
BITMAP
0000
4000
c000
f9c0
f980
1800
1800
1800
1800
1800
1800
4000
c000
ffc0
ff80
0000
0000
0000
ENDCHAR
STARTCHAR C112
ENCODING 74
SWIDTH 923 0
DWIDTH 12 0
BBX 12 18 0 -4
BITMAP
0000
1000
3000
3cc0
3c80
0c00
0c00
0c00
0c00
0c00
4800
c000
e080
7f00
3e00
0000
0000
0000
ENDCHAR
STARTCHAR C113
ENCODING 75
SWIDTH 923 0
DWIDTH 12 0
BBX 12 18 0 -4
BITMAP
0000
4040
c080
c100
c200
c400
c800
c000
c000
c200
c700
c380
c1c0
f0f0
e060
0000
0000
0000
ENDCHAR
STARTCHAR C114
ENCODING 76
SWIDTH 923 0
DWIDTH 12 0
BBX 12 18 0 -4
BITMAP
0000
4000
c000
c000
c000
c000
c000
c000
c000
c000
c000
c000
c000
ffe0
ffc0
0000
0000
0000
ENDCHAR
STARTCHAR C115
ENCODING 77
SWIDTH 923 0
DWIDTH 12 0
BBX 12 18 0 -4
BITMAP
0000
4100
c100
c200
c040
c840
c8c0
ccc0
ccc0
cec0
c6c0
c0c0
c0c0
f0f0
e0e0
0000
0000
0000
ENDCHAR
STARTCHAR C116
ENCODING 78
SWIDTH 923 0
DWIDTH 12 0
BBX 12 18 0 -4
BITMAP
0000
4040
c0c0
c0c0
c8c0
c8c0
ccc0
cc40
ce40
c600
c700
c300
c380
f1f0
e1e0
0000
0000
0000
ENDCHAR
STARTCHAR C117
ENCODING 79
SWIDTH 923 0
DWIDTH 12 0
BBX 12 18 0 -4
BITMAP
0000
0000
1000
2300
6780
49c0
c0c0
c0c0
c0c0
c0c0
e180
6000
7020
3fc0
1f80
0000
0000
0000
ENDCHAR
STARTCHAR C120
ENCODING 80
SWIDTH 923 0
DWIDTH 12 0
BBX 12 18 0 -4
BITMAP
0000
4000
c000
cf00
cf80
c180
c000
c040
cf80
cf00
c000
c000
c000
f000
e000
0000
0000
0000
ENDCHAR
STARTCHAR C121
ENCODING 81
SWIDTH 923 0
DWIDTH 12 0
BBX 12 18 0 -4
BITMAP
0000
0000
1000
2300
6780
4dc0
c0c0
c040
c000
c100
e380
6000
7000
3fd0
1fe0
0040
0000
0000
ENDCHAR
STARTCHAR C122
ENCODING 82
SWIDTH 923 0
DWIDTH 12 0
BBX 12 18 0 -4
BITMAP
0000
4000
c000
cf00
cf80
c180
c000
c040
ce00
cf00
c300
c380
c180
f1e0
e0c0
0000
0000
0000
ENDCHAR
STARTCHAR C123
ENCODING 83
SWIDTH 923 0
DWIDTH 12 0
BBX 12 18 0 -4
BITMAP
0000
0000
2000
4700
cfa0
c1c0
e000
7e00
3f00
0380
0100
4000
e020
7fc0
3f80
0000
0000
0000
ENDCHAR
STARTCHAR C124
ENCODING 84
SWIDTH 923 0
DWIDTH 12 0
BBX 12 18 0 -4
BITMAP
0000
4000
c000
fcf0
fce0
0c00
0c00
0c00
0c00
0c00
0c00
0c00
0c00
0f00
0e00
0000
0000
0000
ENDCHAR
STARTCHAR C125
ENCODING 85
SWIDTH 923 0
DWIDTH 12 0
BBX 12 18 0 -4
BITMAP
0000
0000
4040
c0c0
c0c0
c0c0
c0c0
c0c0
c0c0
c0c0
e080
6000
7020
3fc0
1f80
0000
0000
0000
ENDCHAR
STARTCHAR C126
ENCODING 86
SWIDTH 923 0
DWIDTH 12 0
BBX 12 18 0 -4
BITMAP
0000
4040
c040
c0c0
e0c0
6080
6180
7180
3100
3100
3800
1800
1800
1f00
0e00
0000
0000
0000
ENDCHAR
STARTCHAR C127
ENCODING 87
SWIDTH 923 0
DWIDTH 12 0
BBX 12 18 0 -4
BITMAP
0000
4040
c0c0
c0c0
c0c0
c4c0
c440
c840
c800
c100
c300
c380
c180
f1f0
e0e0
0000
0000
0000
ENDCHAR
STARTCHAR C130
ENCODING 88
SWIDTH 923 0
DWIDTH 12 0
BBX 12 18 0 -4
BITMAP
0000
4040
c080
e080
7100
3000
3800
1c00
0800
1000
1100
2380
4380
f1f0
e1e0
0000
0000
0000
ENDCHAR
STARTCHAR C131
ENCODING 89
SWIDTH 923 0
DWIDTH 12 0
BBX 12 18 0 -4
BITMAP
0000
4040
c080
e180
7100
3000
3800
1c00
0c00
0c00
0c00
0c00
0c00
0f00
0e00
0000
0000
0000
ENDCHAR
STARTCHAR C132
ENCODING 90
SWIDTH 923 0
DWIDTH 12 0
BBX 12 18 0 -4
BITMAP
0000
4000
c000
ff80
fe10
0020
00c0
0180
0200
0400
4800
c000
c000
fff0
ffe0
0000
0000
0000
ENDCHAR
STARTCHAR C133
ENCODING 91
SWIDTH 923 0
DWIDTH 12 0
BBX 12 18 0 -4
BITMAP
1000
3000
3380
3300
3000
3000
3000
3000
3000
3000
3000
3000
3000
3000
3f80
3f00
0000
0000
ENDCHAR
STARTCHAR C134
ENCODING 92
SWIDTH 923 0
DWIDTH 12 0
BBX 12 18 0 -4
BITMAP
0000
2000
6000
7000
3000
3000
3800
1800
1800
1c00
0c00
0c00
0e00
0600
0780
0700
0000
0000
ENDCHAR
STARTCHAR C135
ENCODING 93
SWIDTH 923 0
DWIDTH 12 0
BBX 12 18 0 -4
BITMAP
1000
3000
3e00
3e00
0600
0600
0600
0600
0600
0600
0600
0600
1000
3000
3f80
3f00
0000
0000
ENDCHAR
STARTCHAR C136
ENCODING 94
SWIDTH 923 0
DWIDTH 12 0
BBX 12 18 0 -4
BITMAP
0000
0000
0200
4700
eba0
71c0
2080
0000
0000
0000
0000
0000
0000
0000
0000
0000
0000
0000
ENDCHAR
STARTCHAR C137
ENCODING 95
SWIDTH 923 0
DWIDTH 12 0
BBX 12 18 0 -4
BITMAP
0000
0000
0000
0000
0000
0000
0000
0000
0000
0000
0000
0000
0000
4000
c000
fff0
ffe0
0000
ENDCHAR
STARTCHAR C140
ENCODING 96
SWIDTH 923 0
DWIDTH 12 0
BBX 12 18 0 -4
BITMAP
0000
0900
1200
3000
3000
3e00
3c00
0000
0000
0000
0000
0000
0000
0000
0000
0000
0000
0000
ENDCHAR
STARTCHAR C141
ENCODING 97
SWIDTH 923 0
DWIDTH 12 0
BBX 12 18 0 -4
BITMAP
0000
0000
0000
4000
c000
fe00
ff00
2000
4000
cf00
cf00
c000
e100
7fe0
3dc0
0000
0000
0000
ENDCHAR
STARTCHAR C142
ENCODING 98
SWIDTH 923 0
DWIDTH 12 0
BBX 12 18 0 -4
BITMAP
0000
0000
4000
c000
c000
c000
c700
cf80
c380
c180
c100
c000
c840
ff80
ef00
0000
0000
0000
ENDCHAR
STARTCHAR C143
ENCODING 99
SWIDTH 923 0
DWIDTH 12 0
BBX 12 18 0 -4
BITMAP
0000
0000
0000
0000
0000
0020
0740
4f80
c100
c000
c000
e000
7040
3f80
1f00
0000
0000
0000
ENDCHAR
STARTCHAR C144
ENCODING 100
SWIDTH 923 0
DWIDTH 12 0
BBX 12 18 0 -4
BITMAP
0000
0000
0080
0180
0080
0000
0700
4f80
c380
c180
c100
e000
7080
3fe0
1ec0
0000
0000
0000
ENDCHAR
STARTCHAR C145
ENCODING 101
SWIDTH 923 0
DWIDTH 12 0
BBX 12 18 0 -4
BITMAP
0000
0000
0000
0000
0000
2700
4f80
c000
c000
cfe0
c700
e000
7040
3f80
1f00
0000
0000
0000
ENDCHAR
STARTCHAR C146
ENCODING 102
SWIDTH 923 0
DWIDTH 12 0
BBX 12 18 0 -4
BITMAP
0000
0000
0400
0800
19a0
19c0
1880
1800
4000
c000
f9c0
f980
1800
1e00
1c00
0000
0000
0000
ENDCHAR
STARTCHAR C147
ENCODING 103
SWIDTH 923 0
DWIDTH 12 0
BBX 12 18 0 -4
BITMAP
0000
0000
0000
0000
0000
0700
4f80
c380
c180
c100
e000
7080
3f80
1f00
0000
2020
7fc0
3f80
ENDCHAR
STARTCHAR C150
ENCODING 104
SWIDTH 923 0
DWIDTH 12 0
BBX 12 18 0 -4
BITMAP
0000
0000
4000
c000
c000
c000
c700
cf80
c380
c180
c180
c180
c180
f1e0
e1c0
0000
0000
0000
ENDCHAR
STARTCHAR C151
ENCODING 105
SWIDTH 923 0
DWIDTH 12 0
BBX 12 18 0 -4
BITMAP
0000
0000
0800
1800
1e00
1c00
0000
0800
1800
1800
1800
1800
1800
1e00
1c00
0000
0000
0000
ENDCHAR
STARTCHAR C152
ENCODING 106
SWIDTH 923 0
DWIDTH 12 0
BBX 12 18 0 -4
BITMAP
0000
0400
0c00
0f00
0e00
0000
0400
0c00
0c00
0c00
0c00
0c00
0c00
4000
c000
e080
7f00
3e00
ENDCHAR
STARTCHAR C153
ENCODING 107
SWIDTH 923 0
DWIDTH 12 0
BBX 12 18 0 -4
BITMAP
0000
0000
4000
c000
c100
c200
c400
c800
c000
c000
cc00
ce00
c700
f3e0
e1c0
0000
0000
0000
ENDCHAR
STARTCHAR C154
ENCODING 108
SWIDTH 923 0
DWIDTH 12 0
BBX 12 18 0 -4
BITMAP
0000
0000
0800
1800
1800
1800
1800
1800
1800
1800
1800
1800
1800
1e00
1c00
0000
0000
0000
ENDCHAR
STARTCHAR C155
ENCODING 109
SWIDTH 923 0
DWIDTH 12 0
BBX 12 18 0 -4
BITMAP
0000
0000
0000
0000
4100
c200
c000
c880
ccc0
ccc0
ccc0
ccc0
ccc0
fff0
eee0
0000
0000
0000
ENDCHAR
STARTCHAR C156
ENCODING 110
SWIDTH 923 0
DWIDTH 12 0
BBX 12 18 0 -4
BITMAP
0000
0000
0000
0000
4000
c000
c700
cf80
c380
c180
c180
c180
c180
f1e0
e1c0
0000
0000
0000
ENDCHAR
STARTCHAR C157
ENCODING 111
SWIDTH 923 0
DWIDTH 12 0
BBX 12 18 0 -4
BITMAP
0000
0000
0000
0000
0000
0000
0700
4f80
c380
c180
c100
e000
7040
3f80
1f00
0000
0000
0000
ENDCHAR
STARTCHAR C160
ENCODING 112
SWIDTH 923 0
DWIDTH 12 0
BBX 12 18 0 -4
BITMAP
0000
0000
0000
0000
0000
4000
c700
cf80
c380
c180
c100
c000
c840
cf80
cf00
c000
f000
e000
ENDCHAR
STARTCHAR C161
ENCODING 113
SWIDTH 923 0
DWIDTH 12 0
BBX 12 18 0 -4
BITMAP
0000
0000
0000
0000
0080
0000
0700
4f80
c380
c180
c100
e000
7080
3f80
1f80
0180
01e0
01c0
ENDCHAR
STARTCHAR C162
ENCODING 114
SWIDTH 923 0
DWIDTH 12 0
BBX 12 18 0 -4
BITMAP
0000
0000
0000
0000
4000
c000
c740
cf80
c100
c000
c000
c000
c000
f000
e000
0000
0000
0000
ENDCHAR
STARTCHAR C163
ENCODING 115
SWIDTH 923 0
DWIDTH 12 0
BBX 12 18 0 -4
BITMAP
0000
0000
0000
0000
0000
2740
4f80
c100
e000
7e00
1f00
4000
e040
7f80
3f00
0000
0000
0000
ENDCHAR
STARTCHAR C164
ENCODING 116
SWIDTH 923 0
DWIDTH 12 0
BBX 12 18 0 -4
BITMAP
0000
0000
0800
1800
2000
6000
79c0
7980
1800
1800
1880
1800
1840
1f80
0f00
0000
0000
0000
ENDCHAR
STARTCHAR C165
ENCODING 117
SWIDTH 923 0
DWIDTH 12 0
BBX 12 18 0 -4
BITMAP
0000
0000
0000
0000
4080
c180
c180
c180
c180
c180
e300
6000
7080
3fe0
1ec0
0000
0000
0000
ENDCHAR
STARTCHAR C166
ENCODING 118
SWIDTH 923 0
DWIDTH 12 0
BBX 12 18 0 -4
BITMAP
0000
0000
0000
0000
4100
c300
c300
e200
6600
6200
7200
3000
3000
3e00
1c00
0000
0000
0000
ENDCHAR
STARTCHAR C167
ENCODING 119
SWIDTH 923 0
DWIDTH 12 0
BBX 12 18 0 -4
BITMAP
0000
0000
0000
0000
4020
c460
cc40
c040
e000
6100
6300
7380
3180
31c0
2080
0000
0000
0000
ENDCHAR
STARTCHAR C170
ENCODING 120
SWIDTH 923 0
DWIDTH 12 0
BBX 12 18 0 -4
BITMAP
0000
0000
0000
0000
4040
e080
7100
3800
1c00
0800
1000
2100
4380
f1e0
e0c0
0000
0000
0000
ENDCHAR
STARTCHAR C171
ENCODING 121
SWIDTH 923 0
DWIDTH 12 0
BBX 12 18 0 -4
BITMAP
0000
0000
0000
0000
4080
c180
c180
c180
c180
c300
e000
7080
3f80
1f00
0000
2020
7fc0
3f80
ENDCHAR
STARTCHAR C172
ENCODING 122
SWIDTH 923 0
DWIDTH 12 0
BBX 12 18 0 -4
BITMAP
0000
0000
0000
0000
4000
c000
fe00
f800
00c0
0380
0e00
4000
c000
ffc0
ff80
0000
0000
0000
ENDCHAR
STARTCHAR C173
ENCODING 123
SWIDTH 923 0
DWIDTH 12 0
BBX 12 18 0 -4
BITMAP
0000
0800
1180
3300
3200
3000
2000
0000
e000
7000
3000
3000
3000
3800
1f80
0f00
0000
0000
ENDCHAR
STARTCHAR C174
ENCODING 124
SWIDTH 923 0
DWIDTH 12 0
BBX 12 18 0 -4
BITMAP
0800
1800
1800
1800
1800
1800
1800
1800
1800
1800
1800
1800
1800
1800
1e00
1c00
0000
0000
ENDCHAR
STARTCHAR C175
ENCODING 125
SWIDTH 923 0
DWIDTH 12 0
BBX 12 18 0 -4
BITMAP
1000
3000
3800
3c00
0e00
0600
0600
0300
0060
0240
0600
0400
1000
3100
3e00
3c00
0000
0000
ENDCHAR
STARTCHAR C176
ENCODING 126
SWIDTH 923 0
DWIDTH 12 0
BBX 12 18 0 -4
BITMAP
0000
1020
2040
4600
e700
73e0
21c0
0000
0000
0000
0000
0000
0000
0000
0000
0000
0000
0000
ENDCHAR
ENDFONT
